<?xml version="1.0" encoding="utf-8"?>
<!-- Generator: Adobe Illustrator 25.0.1, SVG Export Plug-In . SVG Version: 6.00 Build 0)  -->
<svg version="1.1" id="Livello_1" xmlns="http://www.w3.org/2000/svg" xmlns:xlink="http://www.w3.org/1999/xlink" x="0px" y="0px"
	 viewBox="0 0 1200 592" style="enable-background:new 0 0 1200 592;" xml:space="preserve">
<g>
	<path d="M356.32,348.75c-28.33,0-46.1-27.05-48.89-34.58c-1.3-3.51-0.06-6.52,2.68-8.33c0.67-0.44,1.38-0.75,2.11-0.92
		c2.69-0.65,5.48,0.51,7.19,2.91c8.21,11.48,15.84,24.16,29.7,28.61c0.18-8.25-4.37-56.7-37.2-78.67
		c-12.16-8.14-27.03-13.16-48.03-11.27c4.63,3.09,9.74,7.84,13.46,13.7c13.2,20.8,1.94,41.18,1.94,54.29
		c0,10.55,7.49,20.39,34.22,20.39c5.37,19.12,22.54,29.34,39.34,29.34c28.95,0,47.81-28.25,50.79-51.52
		C396.19,331.12,383.11,348.75,356.32,348.75z M317.57,283.5c1.02,3.17,0.83,4.29,0.05,6.36c0.04,0.18-9.05-0.64-10.76-9.99
		L317.57,283.5z"/>
	<path d="M254.27,250.39l-37.34-22.98c0,0-4.93,4.29-6.77,10.28c-4.36,14.14,1.56,26.48,13.65,32.78
		c9.39,4.89,27.38,10.16,39.24,18.92c4.18,3.08,7.74,6.53,9.2,8c3.86-9.55,3.57-19.72,0.72-26.42
		C269.32,262.36,265.43,257.32,254.27,250.39z"/>
	<path d="M255.33,295.04c-14.07-8.58-31.89-13.67-39.39-18.6c-11.94-7.85-17.16-19.41-16.05-32.58
		c-12.98,15.3-14.33,39.4,0.35,56.17c17.2,19.65,36.72,16.98,45.32,23.64c6.97,5.4,7.16,11.2,7.16,11.2
		c7.1-0.57,12.83-5.54,15.26-11.22C273.25,311.34,266.79,302.02,255.33,295.04z"/>
</g>
<g>
	<g>
		<path d="M254.63,448.98l3.68-14.24l-5,1.65l-1.64-4.78l9.28-3.1l5.07,1.31l-5.36,20.72L254.63,448.98z"/>
		<path d="M283.47,453.84l0.34-3.98l-11.79-1l0.39-4.6l12.47-11.78l6.02,0.51l-1.1,12.93l3.09,0.26l-0.9,4.37l-2.56-0.22l-0.34,3.98
			L283.47,453.84z M284.78,438.35l-6.93,6.56l6.33,0.54L284.78,438.35z"/>
		<path d="M305.31,445.34l-0.38-4.66l2.38-0.19c2.08-0.17,3.07-0.9,2.96-2.2c-0.05-0.62-0.37-1.08-0.95-1.38
			c-0.58-0.3-1.38-0.42-2.39-0.33c-0.95,0.08-1.67,0.33-2.18,0.77c-0.5,0.43-0.84,1.11-1.02,2.01l-5.88-0.05
			c0.05-1.43,0.43-2.68,1.14-3.74c0.71-1.06,1.73-1.91,3.04-2.55c1.32-0.63,2.9-1.03,4.75-1.18c1.79-0.15,3.37-0.04,4.73,0.32
			c1.36,0.36,2.45,0.95,3.25,1.79s1.25,1.86,1.35,3.08c0.09,1.07-0.14,2.04-0.68,2.92s-1.37,1.56-2.49,2.07
			c1.44,0.34,2.55,0.92,3.33,1.75c0.78,0.83,1.22,1.87,1.32,3.12c0.17,2.1-0.55,3.8-2.15,5.12c-1.6,1.31-3.94,2.09-7.01,2.34
			c-3.11,0.25-5.54-0.24-7.3-1.46c-1.76-1.23-2.76-3.09-3-5.6l5.93-0.48c0.39,2.06,1.7,3,3.93,2.82c1.17-0.09,2.05-0.36,2.62-0.8
			s0.83-1.04,0.77-1.8c-0.11-1.42-1.39-2.03-3.82-1.84L305.31,445.34z"/>
		<path d="M336.32,449l-0.98-3.87l-11.47,2.91l-1.14-4.47l7.93-15.21l5.85-1.49l3.19,12.58l3-0.76l0.58,4.42l-2.49,0.63l0.98,3.87
			L336.32,449z M332.49,433.93l-4.4,8.47l6.15-1.56L332.49,433.93z"/>
	</g>
	<g>
		<g>
			<g>
				<path d="M178.74,391.74c-0.42,0.84-0.53,1.65-0.35,2.45c0.19,0.8,0.7,1.67,1.53,2.61c0.94,1.07,1.77,1.78,2.48,2.13
					c0.72,0.35,1.3,0.32,1.75-0.07c0.42-0.37,0.6-0.79,0.54-1.26c-0.06-0.47-0.39-1.2-1-2.17l-2.56-4.1
					c-1.55-2.46-2.34-4.52-2.36-6.19s0.7-3.15,2.15-4.42c1.75-1.54,3.7-2,5.84-1.38c2.14,0.62,4.42,2.32,6.85,5.08
					c2.42,2.76,3.78,5.3,4.08,7.61c0.3,2.31-0.46,4.42-2.27,6.34l-4.29-4.89c0.66-0.85,0.9-1.75,0.73-2.7
					c-0.17-0.95-0.78-2.02-1.83-3.21c-0.98-1.12-1.88-1.86-2.69-2.22c-0.81-0.36-1.47-0.32-1.98,0.13c-0.39,0.34-0.54,0.77-0.47,1.3
					c0.08,0.52,0.41,1.25,1.01,2.18l2.15,3.34c1.66,2.58,2.53,4.77,2.6,6.58c0.07,1.8-0.64,3.36-2.13,4.67
					c-1.6,1.4-3.49,1.77-5.67,1.1c-2.18-0.67-4.4-2.29-6.66-4.87c-2.1-2.39-3.31-4.6-3.64-6.64c-0.33-2.03,0.21-3.93,1.61-5.68
					L178.74,391.74z"/>
				<path d="M181.91,370.03l-18.75,11.73l-3.45-5.51l18.75-11.73L181.91,370.03z"/>
				<path d="M157.43,338.54c2.67-0.79,5.11-0.51,7.31,0.83c2.21,1.35,3.98,3.63,5.31,6.86c0.99,2.4,1.43,4.66,1.31,6.76
					c-0.11,2.1-0.78,3.97-2.01,5.6c-1.22,1.63-2.95,2.91-5.19,3.83c-2.12,0.87-4.18,1.18-6.19,0.91c-2.01-0.27-3.82-1.1-5.45-2.49
					c-1.62-1.4-2.95-3.32-3.96-5.79c-1.22-2.96-1.59-5.57-1.12-7.83c0.47-2.26,1.8-4.19,3.98-5.78l3.17,5.73
					c-0.94,0.81-1.5,1.68-1.68,2.62c-0.18,0.93-0.02,2.03,0.5,3.29c0.72,1.74,1.8,2.88,3.24,3.42c1.44,0.54,3.09,0.43,4.94-0.33
					c1.87-0.77,3.12-1.86,3.74-3.27c0.63-1.41,0.57-3.01-0.17-4.8c-0.57-1.39-1.29-2.38-2.14-2.95c-0.85-0.57-1.88-0.76-3.09-0.55
					L157.43,338.54z"/>
				<path d="M163.55,328.22l-21.58,4.82l-1.42-6.35l21.58-4.82L163.55,328.22z"/>
				<path d="M160.45,313.1l-22.07,1.47l-0.43-6.49l16.75-1.11l-0.84-12.64l5.36,0.33L160.45,313.1z"/>
				<path d="M159.8,286.78l-22.03-1.89l0.55-6.48l22.03,1.89L159.8,286.78z"/>
				<path d="M165.73,254.17l-4.41,0.57l-2.59,9.86l3.57,2.63l-1.68,6.38l-18.94-14.94l1.94-7.37l23.84-3.69L165.73,254.17z
					 M147.6,256.38l6.86,5.1l1.62-6.17L147.6,256.38z"/>
				<path d="M170.17,241.75l-19.68-10.08l8.78-17.15l4.44,2.27l-5.87,11.47l3,1.54l5.58-10.89l4.44,2.27l-5.58,10.89l3.36,1.72
					l6.21-12.13l4.16,2.83L170.17,241.75z"/>
				<path d="M191.6,185.11c-0.86-0.37-1.68-0.43-2.46-0.19c-0.78,0.24-1.62,0.81-2.51,1.7c-1.01,1.01-1.66,1.88-1.96,2.62
					c-0.3,0.74-0.24,1.32,0.19,1.74c0.39,0.39,0.82,0.55,1.29,0.46c0.47-0.09,1.17-0.47,2.1-1.14l3.92-2.82
					c2.35-1.71,4.36-2.63,6.02-2.76c1.66-0.13,3.18,0.49,4.56,1.86c1.65,1.65,2.23,3.56,1.75,5.74c-0.48,2.18-2.02,4.56-4.62,7.16
					c-2.6,2.6-5.04,4.12-7.33,4.57c-2.29,0.44-4.44-0.17-6.47-1.85l4.6-4.6c0.89,0.6,1.8,0.78,2.74,0.55s1.96-0.91,3.09-2.04
					c1.05-1.05,1.73-1.99,2.04-2.83c0.31-0.83,0.22-1.49-0.26-1.97c-0.36-0.37-0.81-0.49-1.32-0.38c-0.52,0.11-1.22,0.49-2.11,1.15
					l-3.2,2.37c-2.47,1.83-4.6,2.83-6.4,3.02c-1.8,0.19-3.4-0.42-4.8-1.82c-1.5-1.5-1.99-3.36-1.47-5.58c0.53-2.22,2-4.54,4.42-6.96
					c2.25-2.25,4.38-3.6,6.38-4.06c2.01-0.46,3.93-0.05,5.77,1.24L191.6,185.11z"/>
				<path d="M217.72,183.76l-9.28-13.99l-6.86,4.55l-2.95-4.44l19.15-12.71l2.95,4.44l-6.86,4.55l9.28,13.99L217.72,183.76z"/>
				<path d="M242.99,169.83l-16.36-17.39l6.68-2.57l11.14,12.7l-0.27-16.89l6.53-2.52l-0.46,23.88L242.99,169.83z"/>
				<path d="M264.57,162.41l-3.16-21.89l10.3-1.49c4.37-0.63,7.82-0.19,10.35,1.34c2.53,1.52,4.05,4.08,4.57,7.68
					c0.5,3.49-0.29,6.36-2.39,8.61s-5.32,3.68-9.67,4.31L264.57,162.41z M273.97,155.8c4.62-0.67,6.65-2.94,6.09-6.82
					c-0.55-3.84-3.05-5.44-7.48-4.8l-4.05,0.58l1.67,11.59L273.97,155.8z"/>
				<path d="M295.85,159.34l0.58-22.11l6.5,0.17l-0.58,22.11L295.85,159.34z"/>
				<path d="M317.61,161.11l-4.65-23.42l7.03,1.36l2.71,16.68l8.73-14.47l6.87,1.33l-13.05,20L317.61,161.11z"/>
				<path d="M359.91,175.31l5.42-11.69l-10.62,9.28l-4.33-2.01l0.2-14.04l-5.39,11.63l-5.34-2.48l9.3-20.06l6.66,3.09l-0.18,16.51
					l12.46-10.82l6.55,3.04l-9.3,20.06L359.91,175.31z"/>
				<path d="M402.14,198.79l-3.59-3.64l3.46-3.42l7.79,7.89l-7.25,7.16c-1.75-0.36-3.47-1.03-5.15-2.01
					c-1.68-0.98-3.25-2.21-4.72-3.7c-3.08-3.11-4.75-6.23-5.01-9.35c-0.27-3.12,0.9-5.96,3.5-8.53c1.69-1.67,3.52-2.76,5.5-3.27
					c1.97-0.51,3.99-0.41,6.05,0.31c2.06,0.72,4.05,2.05,5.97,3.99c2.16,2.19,3.49,4.42,3.99,6.68c0.5,2.27,0.14,4.4-1.07,6.41
					l-5.03-4.17c0.41-0.93,0.49-1.83,0.22-2.68c-0.27-0.86-0.88-1.78-1.86-2.76c-1.44-1.46-2.92-2.17-4.46-2.15
					c-1.53,0.02-3.05,0.77-4.55,2.25c-1.57,1.55-2.33,3.12-2.28,4.69c0.05,1.58,0.92,3.23,2.62,4.94c1.36,1.38,2.75,2.39,4.16,3.03
					L402.14,198.79z"/>
				<path d="M405.48,214.89l18.7-11.81l10.29,16.29l-4.22,2.66l-6.88-10.9l-2.85,1.8l6.53,10.34l-4.22,2.66l-6.53-10.34l-3.2,2.02
					l7.28,11.52l-4.55,2.14L405.48,214.89z"/>
				<path d="M425.39,254.77l8.86-15.1l-12.65,4.55l-2.1-5.83l20.81-7.48l1.95,5.42l-8.86,15.1l12.65-4.55l2.1,5.83l-20.81,7.48
					L425.39,254.77z"/>
				<path d="M429.13,268.68l21.94-2.79l2.43,19.11l-4.95,0.63l-1.63-12.78l-3.35,0.43l1.54,12.14l-4.95,0.63l-1.54-12.14l-3.75,0.48
					l1.72,13.52l-5.02,0.02L429.13,268.68z"/>
				<path d="M430.54,311.57l7.82-3.82l0.4-5.06l-7.47-0.59l0.48-6.11l22.05,1.75l-0.89,11.27c-0.52,6.57-3.22,9.66-8.1,9.27
					c-1.46-0.11-2.66-0.53-3.58-1.25c-0.93-0.72-1.64-1.76-2.13-3.12l-9.13,4.72L430.54,311.57z M443.08,307.8
					c-0.11,1.4,0.01,2.44,0.38,3.11c0.36,0.67,1.01,1.04,1.93,1.12c0.91,0.07,1.58-0.18,2.03-0.76c0.45-0.57,0.73-1.57,0.84-2.99
					l0.38-4.82l-5.19-0.41L443.08,307.8z"/>
				<path d="M423.35,341.96l4.43-0.38l3.02-9.73l-3.45-2.79l1.95-6.3l18.27,15.75l-2.26,7.28l-23.98,2.65L423.35,341.96z
					 M441.56,340.53l-6.63-5.4l-1.89,6.09L441.56,340.53z"/>
				<path d="M418.32,354.17l19.28,10.83l-3.19,5.67l-14.64-8.22l-6.2,11.04l-4.31-3.2L418.32,354.17z"/>
				<path d="M404.85,376.54l16.8,14.39l-12.53,14.63l-3.79-3.24l8.38-9.79l-2.57-2.2l-7.96,9.29l-3.79-3.24l7.96-9.29l-2.87-2.46
					l-8.87,10.35l-3.39-3.71L404.85,376.54z"/>
			</g>
			<path d="M201.99,393.93"/>
			<path d="M388.98,393.93"/>
		</g>
	</g>
	<circle cx="219.09" cy="420.48" r="4.22"/>
	<circle cx="371.94" cy="420.48" r="4.22"/>
</g>
<g>
	<g>
		<path d="M550.52,188.99v55.84c0,9.48,2.26,16.66,6.77,21.55c4.51,4.89,10.67,7.33,18.48,7.33c8.26,0,14.61-2.69,19.05-8.07
			c4.44-5.38,6.65-13.08,6.65-23.09v-53.56h4.78v53.56c0,12.36-2.98,21.7-8.93,28.03c-5.95,6.33-14.58,9.5-25.87,9.5
			c-5.69,0-10.8-0.8-15.35-2.39c-4.55-1.59-8.43-3.92-11.66-6.99c-3.22-3.07-5.68-6.86-7.39-11.37c-1.71-4.51-2.56-9.68-2.56-15.52
			v-54.81H550.52z"/>
		<path d="M636.61,278.48h-14.78v-54.7h14.78V278.48z M636.61,237.54c0.98-5.61,3.3-9.78,6.94-12.51c3.64-2.73,7.81-4.09,12.51-4.09
			c3.49,0,6.43,0.57,8.81,1.71c2.39,1.14,4.34,2.69,5.86,4.66c1.52,1.97,2.62,4.25,3.3,6.82c0.68,2.58,1.02,5.31,1.02,8.19v36.16
			h-14.78v-35.82c0-2.73-0.28-5.06-0.85-6.99c-0.57-1.93-1.35-3.49-2.33-4.66c-0.99-1.17-2.14-2.03-3.47-2.56
			c-1.33-0.53-2.75-0.8-4.27-0.8c-2.73,0-5.19,0.8-7.39,2.39C639.75,231.63,637.97,234.13,636.61,237.54z"/>
		<path d="M689.14,198.65c0-2.43,0.85-4.49,2.56-6.2c1.71-1.71,3.77-2.56,6.2-2.56c2.43,0,4.51,0.85,6.26,2.56
			c1.74,1.7,2.62,3.77,2.62,6.2c0,2.43-0.87,4.49-2.62,6.2c-1.74,1.7-3.83,2.56-6.26,2.56c-2.43,0-4.49-0.85-6.2-2.56
			C690,203.14,689.14,201.08,689.14,198.65z M690.51,223.78h14.78v54.7h-14.78V223.78z"/>
		<path d="M768.52,223.78l-23.08,54.7h-8.19l-23.09-54.7h16.15l16.38,41.05l17.51-41.05H768.52z"/>
		<path d="M788.19,244.14c-0.08,0.68-0.11,1.36-0.11,2.05v1.82c0,3.49,0.34,6.71,1.02,9.67c0.68,2.96,1.74,5.52,3.18,7.68
			c1.44,2.16,3.31,3.87,5.63,5.12c2.31,1.25,5.06,1.88,8.25,1.88c1.82,0,3.68-0.23,5.57-0.68c1.89-0.45,3.73-1.23,5.51-2.33
			s3.43-2.56,4.95-4.38c1.52-1.82,2.8-4.06,3.87-6.71l1.71,0.57c-2.05,7.36-5.36,12.74-9.95,16.15c-4.59,3.41-9.95,5.12-16.09,5.12
			c-4.4,0-8.4-0.7-12-2.1c-3.6-1.4-6.67-3.39-9.21-5.97c-2.54-2.58-4.51-5.69-5.91-9.32c-1.4-3.64-2.1-7.73-2.1-12.28
			c0-4.32,0.74-8.28,2.22-11.88c1.48-3.6,3.53-6.71,6.14-9.32c2.62-2.62,5.7-4.64,9.27-6.08c3.56-1.44,7.47-2.16,11.71-2.16
			c3.41,0,6.6,0.55,9.55,1.65c2.96,1.1,5.53,2.67,7.73,4.72c2.2,2.05,3.94,4.49,5.23,7.33c1.29,2.84,1.97,6.01,2.05,9.5H788.19z
			 M801.72,223.44c-1.97,0-3.72,0.47-5.23,1.42c-1.52,0.95-2.82,2.26-3.92,3.92c-1.1,1.67-1.99,3.58-2.67,5.74
			c-0.68,2.16-1.18,4.42-1.48,6.77h23.88c-0.08-5.76-0.97-10.18-2.67-13.25C807.92,224.98,805.29,223.44,801.72,223.44z"/>
		<path d="M853.81,278.48h-14.78v-54.7h14.78v15.13c0.68-2.58,1.61-4.95,2.79-7.11c1.17-2.16,2.63-4.02,4.38-5.57
			c1.74-1.55,3.81-2.77,6.2-3.64c2.39-0.87,5.17-1.31,8.36-1.31v12.62c-1.29-0.3-2.52-0.53-3.69-0.68c-1.18-0.15-2.41-0.23-3.7-0.23
			c-1.52,0-3.01,0.1-4.49,0.28c-1.48,0.19-2.86,0.51-4.15,0.97c-1.29,0.46-2.43,1.06-3.41,1.82c-0.99,0.76-1.74,1.71-2.28,2.84
			V278.48z"/>
		<path d="M885.65,264.38c1.44,0,2.63,0.38,3.58,1.14c0.95,0.76,1.78,1.67,2.5,2.73c0.72,1.06,1.36,2.16,1.93,3.3
			c0.57,1.14,1.23,2.12,1.99,2.96c1.67,1.97,3.71,2.96,6.14,2.96c3.18,0,5.72-0.97,7.62-2.9c1.9-1.93,2.84-4.34,2.84-7.22
			c0-2.65-0.8-4.95-2.39-6.88c-1.59-1.93-4.06-3.35-7.39-4.27l-5-1.48c-3.18-0.91-5.82-1.97-7.9-3.18
			c-2.09-1.21-3.74-2.56-4.95-4.04c-1.21-1.48-2.07-3.03-2.56-4.66c-0.49-1.63-0.74-3.32-0.74-5.06c0-2.73,0.57-5.12,1.7-7.16
			c1.14-2.05,2.67-3.75,4.61-5.12c1.93-1.36,4.23-2.41,6.88-3.13c2.65-0.72,5.53-1.08,8.64-1.08c2.35,0,4.72,0.21,7.11,0.63
			c2.39,0.42,4.53,1.02,6.42,1.82c1.89,0.8,3.45,1.78,4.66,2.96c1.21,1.18,1.82,2.52,1.82,4.04c0,1.36-0.53,2.54-1.59,3.53
			c-1.06,0.99-2.31,1.48-3.75,1.48c-1.44,0-2.58-0.3-3.41-0.91c-0.84-0.61-1.54-1.36-2.1-2.27c-0.57-0.91-1.08-1.86-1.54-2.84
			c-0.45-0.98-1.02-1.89-1.71-2.73c-0.83-1.06-1.74-1.84-2.73-2.33c-0.99-0.49-2.31-0.74-3.98-0.74c-2.5,0-4.61,0.8-6.31,2.39
			c-1.71,1.59-2.56,3.6-2.56,6.03c0,2.35,0.76,4.44,2.27,6.26c1.52,1.82,4.02,3.26,7.51,4.32l4.78,1.36
			c6.29,1.74,10.78,4.06,13.47,6.94c2.69,2.88,4.04,6.56,4.04,11.03c0,2.96-0.64,5.55-1.93,7.79c-1.29,2.24-3.01,4.09-5.17,5.57
			c-2.16,1.48-4.65,2.6-7.45,3.35c-2.81,0.76-5.72,1.14-8.76,1.14c-7.35,0-12.95-1.02-16.77-3.07c-3.83-2.05-5.74-4.4-5.74-7.05
			c0-1.67,0.55-3.01,1.65-4.04C882.48,264.89,883.9,264.38,885.65,264.38z"/>
		<path d="M936.37,198.65c0-2.43,0.85-4.49,2.56-6.2c1.7-1.71,3.77-2.56,6.2-2.56c2.43,0,4.51,0.85,6.26,2.56
			c1.74,1.7,2.62,3.77,2.62,6.2c0,2.43-0.87,4.49-2.62,6.2c-1.74,1.7-3.83,2.56-6.26,2.56c-2.43,0-4.49-0.85-6.2-2.56
			C937.22,203.14,936.37,201.08,936.37,198.65z M937.73,223.78h14.78v54.7h-14.78V223.78z"/>
		<path d="M960.93,223.78h9.89v-10.46l14.78-10.35v20.81h19.9v3.07h-19.9v35.59c0,4.09,0.78,6.98,2.33,8.64
			c1.55,1.67,3.65,2.5,6.31,2.5c2.2,0,4.08-0.59,5.63-1.76c1.55-1.17,3.2-3.05,4.95-5.63l1.59,0.91c-1.97,4.17-4.47,7.37-7.51,9.61
			c-3.03,2.24-6.86,3.35-11.49,3.35c-4.93,0-8.93-1.42-12-4.27c-3.07-2.84-4.61-7.37-4.61-13.59v-35.37h-9.89V223.78z"/>
		<path d="M1054.52,267.45c0,3.79,1.33,5.69,3.98,5.69c0.98,0,1.95-0.21,2.9-0.63c0.95-0.42,1.84-1.19,2.67-2.33l0.91,0.45
			c-1.21,3.49-2.96,5.9-5.23,7.22c-2.28,1.32-4.93,1.99-7.96,1.99c-2.73,0-5.23-0.7-7.51-2.1s-3.64-3.69-4.09-6.88
			c-1.97,3.41-4.34,5.8-7.11,7.17c-2.77,1.36-5.67,2.05-8.7,2.05c-5,0-8.76-1.33-11.26-3.98c-2.5-2.65-3.75-5.8-3.75-9.44
			c0-2.96,0.74-5.48,2.22-7.56c1.48-2.08,3.56-3.83,6.26-5.23c2.69-1.4,5.93-2.48,9.72-3.24c3.79-0.76,8-1.25,12.62-1.48v-15.92
			c0-3.56-0.66-6.1-1.99-7.62c-1.33-1.52-3.28-2.28-5.86-2.28c-1.97,0-3.66,0.48-5.06,1.42c-1.4,0.95-2.1,2.52-2.1,4.72
			c0,0.45,0.04,0.97,0.11,1.54c0.08,0.57,0.11,1.27,0.11,2.1c0,1.97-0.51,3.57-1.54,4.78c-1.02,1.21-2.52,1.82-4.49,1.82
			c-1.67,0-3.05-0.55-4.15-1.65c-1.1-1.1-1.65-2.6-1.65-4.49c0-2.2,0.64-4.09,1.93-5.69c1.29-1.59,2.92-2.9,4.89-3.92
			c1.97-1.02,4.11-1.78,6.43-2.27c2.31-0.49,4.49-0.74,6.54-0.74c7.2,0,12.57,1.29,16.09,3.87c3.53,2.58,5.25,7.01,5.18,13.31
			L1054.52,267.45z M1017.11,188.42h15.24l8.87,25.81h-2.05L1017.11,188.42z M1023.82,265.18c0,2.58,0.63,4.7,1.88,6.37
			c1.25,1.67,3.01,2.5,5.29,2.5c1.51,0,3.05-0.3,4.61-0.91c1.55-0.61,3.09-1.89,4.61-3.87v-18.65c-5.46,0.68-9.55,2.35-12.28,5
			C1025.18,258.28,1023.82,261.46,1023.82,265.18z"/>
	</g>
	<g>
		<path d="M579.15,354.56c-1.74-1.51-3.51-2.6-5.29-3.24c-1.78-0.64-3.7-0.97-5.74-0.97c-2.58,0-4.93,0.57-7.05,1.71
			s-3.96,2.73-5.52,4.78c-1.55,2.05-2.77,4.49-3.64,7.33c-0.87,2.84-1.31,5.97-1.31,9.38c0,3.41,0.44,6.54,1.31,9.38
			c0.87,2.84,2.08,5.29,3.64,7.33c1.55,2.05,3.43,3.62,5.63,4.72c2.2,1.1,4.62,1.65,7.28,1.65c1.82,0,3.62-0.26,5.4-0.8
			c1.78-0.53,3.54-1.55,5.29-3.07c-1.52,2.96-3.69,5.42-6.54,7.39c-2.84,1.97-6.54,2.96-11.09,2.96c-3.87,0-7.43-0.72-10.69-2.16
			c-3.26-1.44-6.07-3.47-8.42-6.08c-2.35-2.62-4.19-5.74-5.51-9.38c-1.33-3.64-1.99-7.62-1.99-11.94c0-4.17,0.66-8.05,1.99-11.65
			c1.32-3.6,3.16-6.75,5.51-9.44c2.35-2.69,5.16-4.79,8.42-6.31c3.26-1.52,6.82-2.28,10.69-2.28c4.55,0,8.22,1.01,11.03,3.01
			C575.36,348.89,577.56,351.45,579.15,354.56z M579.15,401.52v-89.5h14.79v89.5H579.15z"/>
		<path d="M608.72,321.69c0-2.43,0.85-4.49,2.56-6.2c1.7-1.71,3.77-2.56,6.2-2.56c2.43,0,4.51,0.85,6.26,2.56
			c1.74,1.7,2.62,3.77,2.62,6.2c0,2.43-0.87,4.49-2.62,6.2c-1.74,1.7-3.83,2.56-6.26,2.56c-2.43,0-4.49-0.85-6.2-2.56
			C609.57,326.18,608.72,324.12,608.72,321.69z M610.08,346.82h14.78v54.7h-14.78V346.82z"/>
	</g>
	<g>
		<path d="M738.36,393.68c-5.46,3.41-11.01,5.84-16.66,7.28c-5.65,1.44-11.39,2.16-17.23,2.16c-8.42,0-15.79-1.23-22.12-3.7
			c-6.33-2.46-11.6-5.82-15.81-10.06c-4.21-4.24-7.35-9.19-9.44-14.84c-2.09-5.65-3.13-11.62-3.13-17.91
			c0-7.05,1.19-13.46,3.58-19.22c2.39-5.76,5.78-10.67,10.18-14.73c4.4-4.05,9.7-7.18,15.92-9.38c6.22-2.2,13.15-3.3,20.81-3.3
			c6.14,0,11.9,0.64,17.28,1.93c5.38,1.29,10.65,3.22,15.81,5.8v19.11h-1.71c-2.66-7.51-6.79-13.25-12.39-17.23
			c-5.61-3.98-12.09-5.97-19.45-5.97c-4.25,0-8.32,0.84-12.23,2.5c-3.91,1.67-7.33,4.27-10.29,7.79c-2.96,3.53-5.33,8-7.11,13.42
			c-1.78,5.42-2.67,11.85-2.67,19.28c0,7.43,0.87,13.86,2.62,19.27c1.74,5.42,4.09,9.88,7.05,13.36c2.96,3.49,6.39,6.07,10.29,7.73
			c3.9,1.67,8.02,2.5,12.34,2.5c3.71,0,7.24-0.46,10.58-1.36c3.34-0.91,6.41-2.37,9.21-4.38c2.8-2.01,5.29-4.61,7.45-7.79
			s3.92-7.01,5.29-11.49h1.82V393.68z"/>
		<path d="M792.14,390.49c0,3.79,1.32,5.69,3.98,5.69c0.98,0,1.95-0.21,2.9-0.63c0.95-0.42,1.84-1.19,2.67-2.33l0.91,0.45
			c-1.21,3.49-2.96,5.9-5.23,7.22c-2.27,1.32-4.93,1.99-7.96,1.99c-2.73,0-5.23-0.7-7.51-2.1c-2.28-1.4-3.64-3.69-4.09-6.88
			c-1.97,3.41-4.34,5.8-7.11,7.17c-2.77,1.36-5.67,2.05-8.7,2.05c-5,0-8.76-1.33-11.26-3.98c-2.5-2.65-3.75-5.8-3.75-9.44
			c0-2.96,0.74-5.48,2.22-7.56c1.48-2.09,3.56-3.83,6.26-5.23c2.69-1.4,5.93-2.48,9.72-3.24c3.79-0.76,8-1.25,12.62-1.48v-15.92
			c0-3.56-0.67-6.1-1.99-7.62c-1.33-1.52-3.28-2.28-5.86-2.28c-1.97,0-3.66,0.48-5.06,1.42c-1.4,0.95-2.1,2.52-2.1,4.72
			c0,0.45,0.04,0.97,0.11,1.54c0.07,0.57,0.11,1.27,0.11,2.1c0,1.97-0.51,3.57-1.53,4.78c-1.02,1.21-2.52,1.82-4.49,1.82
			c-1.67,0-3.05-0.55-4.15-1.65c-1.1-1.1-1.65-2.6-1.65-4.49c0-2.2,0.64-4.09,1.93-5.69c1.29-1.59,2.92-2.9,4.89-3.92
			c1.97-1.02,4.11-1.78,6.42-2.27c2.31-0.49,4.49-0.74,6.54-0.74c7.2,0,12.57,1.29,16.09,3.87c3.52,2.58,5.25,7.01,5.17,13.31
			L792.14,390.49z M761.44,388.22c0,2.58,0.63,4.7,1.88,6.37c1.25,1.67,3.01,2.5,5.29,2.5c1.52,0,3.05-0.3,4.61-0.91
			c1.55-0.61,3.09-1.89,4.61-3.87v-18.65c-5.46,0.68-9.55,2.35-12.28,5C762.81,381.32,761.44,384.5,761.44,388.22z"/>
		<path d="M802.27,346.82h9.89v-10.46l14.78-10.35v20.81h19.9v3.07h-19.9v35.59c0,4.09,0.78,6.98,2.33,8.64
			c1.55,1.67,3.66,2.5,6.31,2.5c2.2,0,4.07-0.59,5.63-1.76c1.55-1.17,3.2-3.05,4.95-5.63l1.59,0.91c-1.97,4.17-4.48,7.37-7.51,9.61
			c-3.03,2.24-6.86,3.35-11.49,3.35c-4.93,0-8.93-1.42-12-4.27c-3.07-2.84-4.61-7.37-4.61-13.59V349.9h-9.89V346.82z"/>
		<path d="M895.86,390.49c0,3.79,1.33,5.69,3.98,5.69c0.98,0,1.95-0.21,2.9-0.63c0.95-0.42,1.84-1.19,2.67-2.33l0.91,0.45
			c-1.21,3.49-2.96,5.9-5.23,7.22c-2.28,1.32-4.93,1.99-7.96,1.99c-2.73,0-5.23-0.7-7.51-2.1s-3.64-3.69-4.09-6.88
			c-1.97,3.41-4.34,5.8-7.11,7.17c-2.77,1.36-5.67,2.05-8.7,2.05c-5,0-8.76-1.33-11.26-3.98c-2.5-2.65-3.75-5.8-3.75-9.44
			c0-2.96,0.74-5.48,2.22-7.56c1.48-2.09,3.56-3.83,6.26-5.23c2.69-1.4,5.93-2.48,9.72-3.24c3.79-0.76,8-1.25,12.62-1.48v-15.92
			c0-3.56-0.66-6.1-1.99-7.62c-1.33-1.52-3.28-2.28-5.86-2.28c-1.97,0-3.66,0.48-5.06,1.42c-1.4,0.95-2.1,2.52-2.1,4.72
			c0,0.45,0.04,0.97,0.11,1.54c0.08,0.57,0.11,1.27,0.11,2.1c0,1.97-0.51,3.57-1.54,4.78c-1.02,1.21-2.52,1.82-4.49,1.82
			c-1.67,0-3.05-0.55-4.15-1.65c-1.1-1.1-1.65-2.6-1.65-4.49c0-2.2,0.64-4.09,1.93-5.69c1.29-1.59,2.92-2.9,4.89-3.92
			c1.97-1.02,4.11-1.78,6.43-2.27c2.31-0.49,4.49-0.74,6.54-0.74c7.2,0,12.57,1.29,16.09,3.87c3.53,2.58,5.25,7.01,5.18,13.31
			L895.86,390.49z M865.15,388.22c0,2.58,0.63,4.7,1.88,6.37c1.25,1.67,3.01,2.5,5.29,2.5c1.51,0,3.05-0.3,4.61-0.91
			c1.55-0.61,3.09-1.89,4.61-3.87v-18.65c-5.46,0.68-9.55,2.35-12.28,5C866.52,381.32,865.15,384.5,865.15,388.22z"/>
		<path d="M929.52,401.52h-14.78v-54.7h14.78V401.52z M929.52,360.58c0.98-5.61,3.3-9.78,6.94-12.51c3.64-2.73,7.81-4.09,12.51-4.09
			c3.49,0,6.42,0.57,8.81,1.71c2.39,1.14,4.34,2.69,5.86,4.66c1.51,1.97,2.62,4.25,3.3,6.82c0.68,2.58,1.02,5.31,1.02,8.19v36.16
			h-14.78V365.7c0-2.73-0.29-5.06-0.85-6.99c-0.57-1.93-1.35-3.49-2.33-4.66c-0.99-1.17-2.14-2.03-3.47-2.56
			c-1.33-0.53-2.75-0.8-4.26-0.8c-2.73,0-5.19,0.8-7.39,2.39C932.66,354.67,930.88,357.17,929.52,360.58z"/>
		<path d="M982.05,321.69c0-2.43,0.85-4.49,2.56-6.2c1.7-1.71,3.77-2.56,6.2-2.56c2.43,0,4.51,0.85,6.26,2.56
			c1.74,1.7,2.62,3.77,2.62,6.2c0,2.43-0.87,4.49-2.62,6.2c-1.74,1.7-3.83,2.56-6.26,2.56c-2.43,0-4.49-0.85-6.2-2.56
			C982.91,326.18,982.05,324.12,982.05,321.69z M983.42,346.82h14.78v54.7h-14.78V346.82z"/>
		<path d="M1054.38,390.49c0,3.79,1.32,5.69,3.98,5.69c0.98,0,1.95-0.21,2.9-0.63c0.95-0.42,1.84-1.19,2.67-2.33l0.91,0.45
			c-1.21,3.49-2.96,5.9-5.23,7.22c-2.28,1.32-4.93,1.99-7.96,1.99c-2.73,0-5.23-0.7-7.51-2.1c-2.28-1.4-3.64-3.69-4.09-6.88
			c-1.97,3.41-4.34,5.8-7.11,7.17c-2.77,1.36-5.67,2.05-8.7,2.05c-5,0-8.76-1.33-11.26-3.98s-3.75-5.8-3.75-9.44
			c0-2.96,0.74-5.48,2.22-7.56c1.48-2.09,3.56-3.83,6.26-5.23c2.69-1.4,5.93-2.48,9.72-3.24c3.79-0.76,8-1.25,12.62-1.48v-15.92
			c0-3.56-0.67-6.1-1.99-7.62c-1.33-1.52-3.28-2.28-5.86-2.28c-1.97,0-3.66,0.48-5.06,1.42c-1.4,0.95-2.1,2.52-2.1,4.72
			c0,0.45,0.04,0.97,0.11,1.54c0.07,0.57,0.11,1.27,0.11,2.1c0,1.97-0.51,3.57-1.53,4.78c-1.02,1.21-2.52,1.82-4.49,1.82
			c-1.67,0-3.05-0.55-4.15-1.65c-1.1-1.1-1.65-2.6-1.65-4.49c0-2.2,0.64-4.09,1.93-5.69c1.29-1.59,2.92-2.9,4.89-3.92
			c1.97-1.02,4.11-1.78,6.42-2.27c2.31-0.49,4.49-0.74,6.54-0.74c7.2,0,12.57,1.29,16.09,3.87c3.52,2.58,5.25,7.01,5.17,13.31
			L1054.38,390.49z M1023.68,388.22c0,2.58,0.63,4.7,1.88,6.37c1.25,1.67,3.01,2.5,5.29,2.5c1.52,0,3.05-0.3,4.61-0.91
			c1.55-0.61,3.09-1.89,4.61-3.87v-18.65c-5.46,0.68-9.55,2.35-12.28,5C1025.04,381.32,1023.68,384.5,1023.68,388.22z"/>
	</g>
</g>
</svg>
